<svg width="16" height="16" viewBox="0 0 16 16" fill="none" xmlns="http://www.w3.org/2000/svg">
<path fill-rule="evenodd" clip-rule="evenodd" d="M0.5 3C0.5 1.61929 1.61929 0.5 3 0.5H4.875C6.25571 0.5 7.375 1.61929 7.375 3V4.875C7.375 6.25571 6.25571 7.375 4.875 7.375H3C1.61929 7.375 0.5 6.25571 0.5 4.875V3ZM8.625 3C8.625 1.61929 9.74429 0.5 11.125 0.5H13C14.3807 0.5 15.5 1.61929 15.5 3V4.875C15.5 6.25571 14.3807 7.375 13 7.375H11.125C9.74429 7.375 8.625 6.25571 8.625 4.875V3ZM0.5 11.125C0.5 9.74429 1.61929 8.625 3 8.625H4.875C6.25571 8.625 7.375 9.74429 7.375 11.125V13C7.375 14.3807 6.25571 15.5 4.875 15.5H3C1.61929 15.5 0.5 14.3807 0.5 13V11.125ZM8.625 11.125C8.625 9.74429 9.74429 8.625 11.125 8.625H13C14.3807 8.625 15.5 9.74429 15.5 11.125V13C15.5 14.3807 14.3807 15.5 13 15.5H11.125C9.74429 15.5 8.625 14.3807 8.625 13V11.125Z" fill="#2B5BFC"/>
</svg>
