<svg width="18" height="18" viewBox="0 0 18 18" fill="none" xmlns="http://www.w3.org/2000/svg">
<path d="M2.75049 8.99934C2.75049 12.4511 5.54871 15.2493 9.00049 15.2493C12.4523 15.2493 15.2505 12.4511 15.2505 8.99934M2.75049 8.99934C2.75049 5.54756 5.54871 2.74934 9.00049 2.74934C12.4523 2.74934 15.2505 5.54756 15.2505 8.99934M2.75049 8.99934L1.50049 8.99934M15.2505 8.99934L16.5005 8.99934M15.2505 8.99934L9.00049 8.99934M1.95262 11.5645L3.12724 11.137M14.8734 6.86171L16.048 6.43419M3.25505 13.8208L4.2126 13.0173M13.7882 4.98243L14.7457 4.17895M5.25041 15.4952L5.87541 14.4126M12.1254 3.58733L12.7504 2.50479M7.69805 16.386L7.91511 15.155M10.0857 2.8449L10.3028 1.61389M10.3028 16.386L10.0857 15.155M7.91512 2.84494L7.69806 1.61393M12.7504 15.495L12.1254 14.4125M5.25044 2.50466L9.00049 8.99934M14.7458 13.8202L13.7883 13.0168M4.21273 4.98192L3.25517 4.17843M16.0482 11.5646L14.8736 11.1371M3.12744 6.86184L1.95283 6.43432M9.00049 8.99934L5.87549 14.412" stroke="#636C7E" stroke-width="1.5" stroke-linecap="round" stroke-linejoin="round"/>
</svg>
